<?xml version="1.0" standalone="no"?>
<!DOCTYPE svg PUBLIC "-//W3C//DTD SVG 20010904//EN"
 "http://www.w3.org/TR/2001/REC-SVG-20010904/DTD/svg10.dtd">
<svg version="1.0" xmlns="http://www.w3.org/2000/svg"
 width="200.000000pt" height="200.000000pt" viewBox="0 0 200.000000 200.000000"
 preserveAspectRatio="xMidYMid meet">
<metadata>
Created by potrace 1.14, written by Peter Selinger 2001-2017
</metadata>
<g transform="translate(0.000000,200.000000) scale(0.100000,-0.100000)"
fill="#000000" stroke="none">
<path d="M757 1889 c-85 -20 -166 -80 -193 -144 -16 -40 -19 -147 -4 -176 13
-23 53 -25 74 -3 9 8 16 32 16 53 0 53 38 121 87 155 34 24 53 29 97 29 34 0
64 -6 80 -17 23 -15 27 -15 32 -2 9 24 -10 68 -38 89 -28 21 -96 28 -151 16z"/>
<path d="M1109 1892 c-38 -5 -69 -42 -71 -84 -2 -48 8 -59 47 -55 19 3 35 -1
37 -7 2 -6 4 -376 3 -823 -1 -770 0 -812 17 -816 10 -3 20 -2 22 1 2 4 3 385
2 847 l-1 840 -35 3 c-45 4 -55 15 -35 36 17 16 81 22 101 8 8 -5 11 -48 10
-130 -1 -87 2 -126 11 -134 26 -21 33 5 33 123 0 97 3 119 14 119 20 0 85 -38
118 -68 28 -26 58 -24 58 2 0 20 -102 91 -164 115 -54 20 -122 30 -167 23z"/>
<path d="M472 1848 c6 -18 28 -21 28 -4 0 9 -7 16 -16 16 -9 0 -14 -5 -12 -12z"/>
<path d="M1470 1845 c0 -8 7 -15 15 -15 8 0 15 7 15 15 0 8 -7 15 -15 15 -8 0
-15 -7 -15 -15z"/>
<path d="M357 1746 c-8 -19 15 -37 32 -26 17 10 7 40 -13 40 -7 0 -16 -6 -19
-14z"/>
<path d="M802 1752 c-33 -5 -88 -64 -95 -102 -4 -18 -4 -70 0 -116 l6 -84 43
0 c24 0 44 3 45 8 0 4 2 39 3 77 1 39 7 80 13 91 16 27 55 35 89 18 37 -19 41
-18 42 16 1 30 -45 89 -71 91 -7 0 -21 2 -32 3 -11 1 -30 0 -43 -2z"/>
<path d="M1584 1745 c-8 -19 12 -36 33 -28 19 7 12 37 -10 41 -9 2 -20 -4 -23
-13z"/>
<path d="M1295 1728 c-3 -7 -6 -49 -7 -92 l-3 -80 -32 -8 c-37 -10 -45 -28
-45 -110 -1 -100 0 -108 22 -108 18 0 20 7 20 80 l0 80 35 14 c19 9 39 24 43
35 6 17 8 120 3 184 -1 19 -29 23 -36 5z"/>
<path d="M468 1693 c-59 -71 -68 -147 -27 -230 22 -43 27 -48 54 -45 33 4 56
-18 48 -47 -7 -27 13 -58 49 -77 38 -20 195 -24 207 -6 5 9 7 80 2 102 -3 13
-66 9 -87 -5 -35 -22 -42 -19 -49 23 -11 66 -21 80 -62 87 -85 14 -103 39
-103 145 0 72 -6 83 -32 53z"/>
<path d="M1039 1683 c-4 -128 1 -1470 6 -1492 3 -16 13 -35 21 -42 12 -9 14
-7 15 17 1 44 1 1517 0 1532 -1 6 -10 12 -21 12 -15 0 -20 -7 -21 -27z"/>
<path d="M1420 1680 c-11 -11 -20 -30 -21 -42 0 -13 -1 -66 -2 -118 l-2 -95
-40 -1 c-22 -1 -46 -2 -52 -3 -10 -1 -13 -36 -13 -138 l0 -137 -35 -36 c-35
-36 -61 -95 -46 -105 5 -2 35 23 67 57 l59 61 0 126 0 126 32 3 c26 3 32 -1
35 -19 4 -28 38 -35 38 -8 0 11 10 23 23 28 13 5 48 33 77 62 l53 52 24 -27
c28 -33 17 -56 -26 -56 -18 0 -39 -12 -59 -33 -28 -29 -31 -36 -18 -46 16 -13
51 -1 58 19 2 6 19 13 38 15 75 9 94 85 34 141 -19 19 -44 34 -54 34 -10 0
-44 -27 -76 -59 -32 -33 -61 -58 -64 -56 -3 2 -7 29 -8 59 l-2 56 31 0 c68 0
106 92 56 138 -30 28 -80 29 -107 2z m86 -41 c3 -5 2 -18 -1 -30 -9 -26 -58
-23 -63 4 -7 36 44 57 64 26z"/>
<path d="M291 1666 c-12 -14 -5 -46 9 -46 22 0 40 14 40 30 0 10 -7 21 -16 24
-21 8 -20 8 -33 -8z"/>
<path d="M1651 1671 c-15 -10 -6 -51 12 -51 27 0 42 19 31 37 -13 21 -25 25
-43 14z"/>
<path d="M857 1593 c-3 -7 -2 -285 2 -321 0 -7 9 -15 19 -19 9 -3 27 -15 40
-26 12 -11 23 -19 23 -16 1 2 3 76 4 164 l3 160 -31 33 c-30 31 -52 40 -60 25z"/>
<path d="M250 1575 c0 -9 5 -15 11 -13 6 2 11 8 11 13 0 5 -5 11 -11 13 -6 2
-11 -4 -11 -13z"/>
<path d="M1710 1575 c0 -9 5 -15 11 -13 6 2 11 8 11 13 0 5 -5 11 -11 13 -6 2
-11 -4 -11 -13z"/>
<path d="M200 1515 c-17 -20 -5 -45 20 -45 11 0 23 7 26 15 6 15 -11 45 -26
45 -4 0 -13 -7 -20 -15z"/>
<path d="M340 1515 c-7 -9 -15 -37 -18 -64 -10 -112 103 -249 249 -298 47 -16
54 -22 56 -47 2 -26 0 -28 -25 -23 -18 4 -36 -2 -57 -17 -32 -23 -56 -34 -143
-61 -63 -19 -86 -38 -106 -86 -15 -37 -16 -55 -3 -76 5 -7 5 -13 2 -13 -4 0 4
-14 16 -31 23 -33 34 -28 42 17 17 86 98 154 182 154 51 0 102 31 119 73 14
34 16 153 3 175 -5 6 -17 12 -28 12 -90 0 -249 176 -258 285 -1 19 -15 19 -31
0z"/>
<path d="M1742 1521 c-8 -5 -12 -17 -10 -27 5 -26 51 -26 56 0 3 16 -12 36
-28 36 -3 0 -11 -4 -18 -9z"/>
<path d="M180 1415 c-10 -12 -10 -15 4 -15 9 0 16 7 16 15 0 8 -2 15 -4 15 -2
0 -9 -7 -16 -15z"/>
<path d="M1780 1415 c0 -9 5 -15 11 -13 6 2 11 8 11 13 0 5 -5 11 -11 13 -6 2
-11 -4 -11 -13z"/>
<path d="M90 1367 c0 -12 59 -47 80 -47 21 0 9 26 -19 43 -35 20 -61 22 -61 4z"/>
<path d="M1828 1364 c-29 -15 -35 -28 -19 -39 14 -8 81 26 81 42 0 17 -28 16
-62 -3z"/>
<path d="M257 1303 c-25 -56 -47 -126 -47 -146 0 -17 3 -17 40 4 38 22 40 22
60 4 27 -24 26 -29 -13 -43 -42 -15 -102 -74 -130 -127 -33 -61 -30 -182 6
-250 28 -54 41 -68 134 -138 33 -26 77 -66 97 -89 l36 -43 25 28 c32 36 32 60
-2 83 -27 17 -83 74 -83 84 0 3 -15 14 -32 24 -108 62 -145 160 -98 263 23 52
90 97 166 113 29 6 63 19 75 29 l22 17 -44 26 c-54 32 -133 110 -161 161 -12
20 -25 37 -28 37 -4 0 -14 -17 -23 -37z"/>
<path d="M1659 1309 c-18 -18 -19 -23 -6 -42 8 -12 25 -22 38 -22 13 0 24 -5
24 -12 0 -6 12 -23 28 -38 22 -23 27 -25 27 -10 0 30 -49 124 -70 135 -16 8
-24 6 -41 -11z"/>
<path d="M1433 1299 c-27 -10 -53 -48 -53 -77 0 -13 13 -37 30 -53 25 -26 34
-29 65 -23 42 7 44 0 9 -32 -19 -18 -36 -24 -74 -24 -47 0 -50 -2 -122 -75
-40 -42 -75 -82 -78 -90 -3 -8 -4 -98 -4 -200 l1 -187 42 -42 c32 -33 41 -49
41 -77 0 -31 8 -43 58 -86 43 -37 65 -50 91 -51 18 0 36 -3 39 -6 21 -22 -145
-126 -199 -126 -32 0 -31 -7 -30 198 1 74 -1 82 -18 82 -18 0 -19 -10 -20
-149 -1 -123 1 -150 14 -161 62 -51 295 70 295 153 0 31 -23 56 -52 57 -13 0
-16 11 -16 58 1 77 -8 102 -36 102 -44 0 -62 -47 -28 -72 23 -16 33 -51 20
-69 -14 -23 -76 54 -74 91 2 23 -7 39 -41 72 l-43 42 0 178 0 177 64 67 c61
65 65 67 117 70 49 3 57 8 103 53 41 42 47 52 37 65 -7 8 -19 12 -27 9 -12 -4
-13 2 -8 33 10 65 -46 114 -103 93z m51 -55 c20 -19 5 -54 -24 -54 -25 0 -41
29 -29 52 12 22 33 23 53 2z"/>
<path d="M100 1275 c0 -8 7 -15 15 -15 8 0 15 7 15 15 0 8 -7 15 -15 15 -8 0
-15 -7 -15 -15z"/>
<path d="M1207 1269 c-6 -22 13 -35 37 -26 20 8 8 47 -14 47 -10 0 -20 -9 -23
-21z"/>
<path d="M1850 1275 c0 -8 7 -15 15 -15 8 0 15 7 15 15 0 8 -7 15 -15 15 -8 0
-15 -7 -15 -15z"/>
<path d="M1593 1243 c-15 -5 -17 -39 -4 -47 16 -10 41 5 41 24 0 19 -17 30
-37 23z"/>
<path d="M717 1221 c-1 -3 -2 -24 -2 -46 l1 -40 48 -6 c51 -5 84 -34 87 -74 1
-11 2 -29 3 -41 1 -26 23 -53 39 -50 36 6 49 24 52 72 4 77 -28 140 -88 170
-28 15 -136 26 -140 15z"/>
<path d="M80 1195 c0 -9 6 -12 15 -9 8 4 15 10 15 15 0 5 -7 9 -15 9 -8 0 -15
-7 -15 -15z"/>
<path d="M1872 1199 c2 -6 8 -10 13 -10 5 0 11 4 13 10 2 6 -4 11 -13 11 -9 0
-15 -5 -13 -11z"/>
<path d="M1208 1188 c-8 -21 2 -38 23 -38 14 0 19 7 19 25 0 18 -5 25 -19 25
-10 0 -21 -6 -23 -12z"/>
<path d="M1579 1090 c-49 -51 -89 -96 -89 -100 0 -4 6 -13 13 -19 11 -8 28 4
80 54 l65 65 61 0 c34 0 61 3 61 8 0 15 -56 70 -78 77 -20 6 -36 -6 -113 -85z"/>
<path d="M57 1133 c-13 -12 -7 -41 10 -47 23 -9 47 22 32 41 -12 14 -32 17
-42 6z"/>
<path d="M1887 1133 c-13 -12 -7 -41 10 -47 9 -4 23 0 31 8 13 12 13 18 2 30
-13 17 -32 21 -43 9z"/>
<path d="M732 1067 c-6 -7 -13 -24 -17 -39 -4 -15 -21 -43 -38 -63 -26 -29
-42 -38 -81 -43 -56 -8 -64 -24 -36 -67 16 -25 17 -31 4 -50 -18 -28 -10 -51
23 -60 29 -7 66 14 84 47 15 29 59 68 75 68 8 0 14 4 14 10 0 5 3 9 8 9 4 -1
10 0 15 1 19 6 31 8 92 9 47 1 65 5 65 14 0 9 -10 12 -30 9 -71 -10 -107 22
-114 101 -2 26 -6 51 -10 54 -12 13 -44 13 -54 0z"/>
<path d="M1685 1052 c-28 -5 -135 -112 -128 -128 9 -25 33 -15 84 36 41 41 55
49 82 47 18 -2 38 -6 45 -11 17 -11 17 -220 -1 -234 -7 -6 -56 -13 -108 -14
-86 -3 -94 -5 -94 -23 0 -18 7 -20 90 -21 50 -1 100 3 112 7 43 16 57 54 58
158 1 53 -1 107 -5 120 -12 46 -72 74 -135 63z"/>
<path d="M1900 1005 c-16 -19 -6 -45 19 -45 26 0 35 37 11 50 -13 7 -21 5 -30
-5z"/>
<path d="M36 1001 c-10 -16 5 -41 24 -41 23 0 32 13 24 34 -7 17 -39 22 -48 7z"/>
<path d="M1379 972 c-8 -4 -32 -26 -52 -48 l-37 -41 0 -147 0 -147 30 -29 c17
-17 36 -30 43 -30 7 0 28 15 46 34 28 29 33 41 34 85 0 50 1 51 32 51 50 0 71
33 39 64 -19 20 -29 20 -47 2 -7 -8 -25 -16 -38 -18 -22 -3 -24 -8 -27 -69 -2
-49 -8 -71 -21 -83 -16 -15 -21 -15 -33 -3 -11 11 -14 41 -12 128 2 142 1 135
22 116 37 -34 114 -17 126 27 20 76 -39 137 -105 108z m63 -54 c12 -19 10 -34
-7 -48 -15 -12 -54 -5 -56 11 -1 5 -2 15 -3 22 -4 32 47 44 66 15z"/>
<path d="M1635 908 c-50 -39 -22 -118 41 -118 33 0 67 32 67 63 0 58 -64 90
-108 55z m60 -52 c0 -22 -14 -29 -33 -18 -17 12 -4 44 17 40 9 -2 16 -12 16
-22z"/>
<path d="M1902 908 c-17 -17 -15 -35 4 -42 25 -10 31 -7 37 14 6 25 -24 45
-41 28z"/>
<path d="M34 899 c-3 -6 1 -18 10 -27 16 -16 18 -16 31 2 8 10 12 23 9 27 -7
13 -42 11 -50 -2z"/>
<path d="M475 899 c-11 -6 -31 -26 -44 -45 -70 -101 17 -239 158 -251 59 -6
106 14 170 72 63 55 81 65 128 68 52 3 60 10 59 54 l-1 38 -51 1 c-75 2 -122
-18 -178 -77 -75 -76 -130 -90 -185 -44 -33 29 -41 55 -28 103 22 88 17 103
-28 81z"/>
<path d="M1520 844 c-11 -12 -10 -18 3 -32 16 -15 18 -15 34 0 13 14 14 20 3
32 -7 9 -16 16 -20 16 -4 0 -13 -7 -20 -16z"/>
<path d="M50 800 c0 -5 7 -10 15 -10 8 0 15 5 15 10 0 6 -7 10 -15 10 -8 0
-15 -4 -15 -10z"/>
<path d="M1900 801 c0 -17 18 -21 24 -6 3 9 0 15 -9 15 -8 0 -15 -4 -15 -9z"/>
<path d="M1895 739 c-4 -6 -3 -15 3 -21 6 -6 11 -4 15 6 7 18 -9 31 -18 15z"/>
<path d="M60 730 c0 -5 7 -10 15 -10 8 0 15 5 15 10 0 6 -7 10 -15 10 -8 0
-15 -4 -15 -10z"/>
<path d="M865 682 c-23 -5 -85 -68 -85 -87 0 -7 8 -23 18 -35 l17 -21 28 21
c15 12 42 24 60 27 40 6 37 3 41 47 4 51 -12 61 -79 48z"/>
<path d="M70 664 c-11 -12 -10 -18 4 -32 16 -16 18 -16 31 2 11 14 12 23 4 33
-15 17 -24 16 -39 -3z"/>
<path d="M1873 673 c-18 -7 -16 -28 3 -44 14 -11 18 -10 30 6 10 13 11 22 3
32 -12 14 -16 15 -36 6z"/>
<path d="M1484 633 c3 -16 18 -18 141 -21 151 -3 168 -1 159 23 -5 13 -30 15
-154 15 -135 0 -148 -2 -146 -17z"/>
<path d="M220 585 c0 -11 63 -130 72 -136 8 -5 33 -5 71 0 14 2 7 17 -26 52
-53 56 -117 102 -117 84z"/>
<path d="M110 565 c0 -8 5 -15 10 -15 6 0 10 7 10 15 0 8 -4 15 -10 15 -5 0
-10 -7 -10 -15z"/>
<path d="M1635 570 c-55 -22 -66 -88 -21 -127 32 -27 63 -29 92 -5 29 23 35
44 23 85 -7 26 -17 38 -41 46 -17 6 -31 11 -32 10 -1 0 -10 -4 -21 -9z m46
-40 c25 -14 25 -46 0 -60 -40 -21 -70 13 -45 49 17 24 19 25 45 11z"/>
<path d="M1850 565 c0 -8 5 -15 10 -15 6 0 10 7 10 15 0 8 -4 15 -10 15 -5 0
-10 -7 -10 -15z"/>
<path d="M1462 554 c-26 -18 -21 -35 8 -29 27 5 34 -10 36 -80 1 -33 2 -65 3
-72 2 -19 70 -61 91 -56 10 3 28 15 39 27 19 20 20 25 7 35 -11 10 -18 8 -35
-10 l-20 -21 -23 25 c-20 21 -23 34 -22 98 0 41 -4 80 -9 87 -13 17 -48 15
-75 -4z"/>
<path d="M566 534 c-6 -7 -27 -32 -46 -57 -38 -49 -101 -87 -144 -87 -14 0
-26 -3 -26 -8 0 -10 49 -82 56 -82 3 0 18 8 32 19 15 10 38 21 52 24 16 4 33
22 49 52 19 36 31 47 60 55 68 18 106 -1 114 -57 7 -42 14 -53 36 -53 27 0 43
24 46 69 3 48 -18 95 -56 122 -23 16 -41 19 -95 17 -37 -2 -72 -8 -78 -14z"/>
<path d="M881 513 c-17 -15 -21 -33 -25 -95 l-5 -78 45 0 c49 0 46 -7 46 107
0 86 -16 103 -61 66z"/>
<path d="M1803 513 c-18 -6 -16 -42 2 -49 8 -4 22 -1 30 6 24 20 -1 54 -32 43z"/>
<path d="M136 501 c-3 -4 1 -16 8 -27 12 -15 16 -16 29 -5 9 7 13 19 10 27 -6
15 -39 19 -47 5z"/>
<path d="M200 378 c0 -7 4 -19 9 -27 12 -19 43 -6 39 16 -4 21 -48 31 -48 11z"/>
<path d="M587 363 c-34 -67 20 -146 104 -152 30 -2 43 4 73 33 42 39 41 61 -1
45 -38 -14 -95 17 -109 62 -15 45 -47 51 -67 12z"/>
<path d="M1732 368 c2 -15 10 -23 23 -23 13 0 21 8 23 23 3 18 -1 22 -23 22
-22 0 -26 -4 -23 -22z"/>
<path d="M1294 296 c-11 -28 1 -91 17 -94 31 -6 33 91 3 102 -8 3 -17 -1 -20
-8z"/>
<path d="M306 283 c-11 -11 -6 -23 9 -23 8 0 15 4 15 9 0 13 -16 22 -24 14z"/>
<path d="M473 271 c-13 -11 -23 -22 -23 -25 0 -12 66 -69 108 -93 64 -38 120
-55 180 -54 110 1 186 43 201 111 11 53 1 75 -37 78 -29 2 -35 -3 -59 -41 -39
-65 -82 -91 -153 -90 -82 1 -142 42 -164 111 -9 27 -24 27 -53 3z"/>
<path d="M1657 283 c-12 -11 -8 -23 8 -23 8 0 15 7 15 15 0 16 -12 20 -23 8z"/>
</g>
</svg>
